<?xml version="1.0" encoding="UTF-8"?>
<svg id="Layer_1" data-name="Layer 1" xmlns="http://www.w3.org/2000/svg" viewBox="0 0 329.19 115.61">
  <defs>
    <style>
      .cls-1 {
        stroke: #231f20;
        stroke-miterlimit: 10;
      }
    </style>
  </defs>
  <path class="cls-1" d="M171.22,43.62c2.63,2.37,3.94,5.3,3.94,8.79,0,3.77-1.63,6.82-4.9,9.16-3.27,2.34-7.36,3.51-12.3,3.51-3.19,0-6.75-.79-10.69-2.35-3.94-1.57-8.46-3.82-13.55-6.75-7.25,3.28-13.02,5.69-17.31,7.22-4.3,1.54-8.36,2.3-12.18,2.3-4.86,0-8.6-1.19-11.22-3.56-2.63-2.37-3.94-5.3-3.94-8.79,0-3.77,1.63-6.82,4.9-9.16,3.26-2.34,7.36-3.51,12.3-3.51,3.18,0,6.75.79,10.69,2.35,3.94,1.57,8.46,3.82,13.55,6.75,7.24-3.28,13.02-5.69,17.31-7.22,4.3-1.53,8.36-2.3,12.18-2.3,4.85,0,8.6,1.19,11.23,3.56ZM113.84,56.13c4.1-1.29,8.82-3.12,14.15-5.49-9.31-5.37-16.56-8.06-21.73-8.06-4.14,0-7.58.89-10.33,2.67s-4.12,3.89-4.12,6.33c0,1.95.91,3.52,2.75,4.71,1.83,1.19,4.42,1.78,7.76,1.78,3.58,0,7.42-.64,11.52-1.94ZM168.29,60.32c2.75-1.78,4.12-3.89,4.12-6.33,0-1.95-.92-3.52-2.75-4.71-1.83-1.19-4.42-1.78-7.76-1.78-3.58,0-7.42.65-11.52,1.94-4.1,1.29-8.82,3.12-14.15,5.49,9.31,5.37,16.56,8.06,21.73,8.06,4.14,0,7.58-.89,10.33-2.67Z"/>
  <path d="M5.92,64.57c-1.63,0-3.02-.54-4.18-1.62-1.16-1.08-1.74-2.38-1.74-3.91s.58-2.83,1.75-3.92c1.17-1.09,2.56-1.63,4.17-1.63s3.02.54,4.18,1.62c1.16,1.08,1.74,2.38,1.74,3.91s-.58,2.83-1.74,3.92c-1.16,1.09-2.55,1.63-4.18,1.63ZM.41,109.19v-39.52h10.96v39.52H.41Z"/>
  <path d="M31.08,86.34v22.85h-10.96v-39.52h10.45v6.97h.46c.87-2.3,2.34-4.12,4.4-5.47,2.06-1.35,4.55-2.02,7.49-2.02,2.74,0,5.14.6,7.18,1.8,2.04,1.2,3.63,2.91,4.76,5.13,1.13,2.22,1.7,4.87,1.7,7.94v25.17h-10.96v-23.21c.02-2.42-.6-4.31-1.85-5.67-1.25-1.36-2.98-2.05-5.17-2.05-1.48,0-2.78.32-3.9.95-1.12.64-2,1.56-2.62,2.77-.63,1.21-.95,2.66-.96,4.36Z"/>
  <path d="M86.43,69.66v8.23h-24.39v-8.23h24.39ZM67.62,109.19v-42.38c0-2.87.56-5.24,1.69-7.13,1.12-1.89,2.66-3.3,4.62-4.25,1.96-.94,4.18-1.42,6.66-1.42,1.68,0,3.22.13,4.62.39,1.4.26,2.44.49,3.13.7l-1.96,8.23c-.43-.14-.96-.27-1.58-.39s-1.27-.18-1.92-.18c-1.61,0-2.74.37-3.37,1.12s-.95,1.79-.95,3.13v42.18h-10.94Z"/>
  <rect x="93.12" y="69.66" width="10.96" height="39.52"/>
  <path d="M123.79,86.34v22.85h-10.96v-39.52h10.45v6.97h.46c.87-2.3,2.34-4.12,4.4-5.47,2.06-1.35,4.55-2.02,7.49-2.02,2.74,0,5.14.6,7.18,1.8,2.04,1.2,3.63,2.91,4.76,5.13,1.13,2.22,1.7,4.87,1.7,7.94v25.17h-10.96v-23.21c.02-2.42-.6-4.31-1.85-5.67-1.25-1.36-2.98-2.05-5.17-2.05-1.48,0-2.78.32-3.9.95-1.12.64-2,1.56-2.62,2.77-.63,1.21-.95,2.66-.96,4.36Z"/>
  <rect x="157.89" y="69.66" width="10.96" height="39.52"/>
  <path d="M195.46,109.96c-4.05,0-7.53-.86-10.43-2.59-2.91-1.72-5.14-4.12-6.69-7.19-1.55-3.07-2.33-6.6-2.33-10.6s.78-7.6,2.35-10.67c1.57-3.06,3.8-5.46,6.7-7.18,2.9-1.72,6.35-2.59,10.34-2.59,3.45,0,6.47.63,9.06,1.88,2.59,1.25,4.64,3.01,6.15,5.28,1.51,2.26,2.34,4.92,2.5,7.98h-10.34c-.29-1.97-1.06-3.56-2.3-4.77-1.24-1.21-2.87-1.81-4.88-1.81-1.7,0-3.18.46-4.44,1.38-1.26.92-2.24,2.25-2.95,4-.7,1.75-1.06,3.87-1.06,6.36s.35,4.67,1.04,6.43,1.68,3.11,2.95,4.04,2.75,1.39,4.45,1.39c1.25,0,2.38-.26,3.38-.77,1-.52,1.84-1.27,2.5-2.25.66-.99,1.09-2.17,1.3-3.56h10.34c-.17,3.02-.99,5.67-2.46,7.96-1.47,2.29-3.49,4.08-6.06,5.37-2.57,1.29-5.62,1.93-9.14,1.93Z"/>
  <path d="M231.12,86.34v22.85h-10.96v-52.7h10.65v20.15h.46c.89-2.33,2.33-4.16,4.32-5.49,1.99-1.33,4.49-1.99,7.49-1.99,2.74,0,5.14.6,7.19,1.79,2.05,1.19,3.65,2.9,4.79,5.12,1.14,2.22,1.7,4.88,1.69,7.96v25.17h-10.96v-23.21c.02-2.44-.6-4.33-1.84-5.69-1.24-1.35-2.98-2.03-5.21-2.03-1.49,0-2.81.32-3.95.95-1.14.64-2.03,1.56-2.68,2.77-.64,1.21-.97,2.66-.99,4.36Z"/>
  <path d="M276.67,109.93c-2.52,0-4.77-.44-6.74-1.33-1.97-.88-3.53-2.2-4.67-3.94-1.14-1.74-1.71-3.92-1.71-6.52,0-2.2.4-4.04,1.21-5.53.81-1.49,1.9-2.69,3.29-3.6,1.39-.91,2.97-1.6,4.75-2.06s3.64-.79,5.6-.98c2.3-.24,4.15-.47,5.56-.68,1.41-.21,2.43-.54,3.06-.96.63-.43.95-1.06.95-1.9v-.15c0-1.63-.51-2.89-1.53-3.78-1.02-.89-2.47-1.34-4.34-1.34-1.97,0-3.54.43-4.71,1.3-1.17.87-1.94,1.95-2.32,3.26l-10.14-.82c.51-2.4,1.53-4.48,3.04-6.24,1.51-1.76,3.46-3.11,5.85-4.07,2.39-.95,5.17-1.43,8.32-1.43,2.2,0,4.3.26,6.32.77,2.02.51,3.81,1.31,5.38,2.39,1.57,1.08,2.81,2.47,3.72,4.16.91,1.69,1.36,3.71,1.36,6.06v26.66h-10.4v-5.48h-.31c-.64,1.24-1.48,2.32-2.55,3.26-1.06.93-2.34,1.66-3.83,2.19-1.49.52-3.22.78-5.17.78ZM279.81,102.37c1.61,0,3.04-.32,4.27-.96s2.2-1.51,2.91-2.61c.7-1.1,1.06-2.34,1.06-3.73v-4.19c-.34.22-.81.42-1.4.6s-1.26.34-1.99.49c-.74.15-1.48.27-2.21.39s-1.41.21-2.01.3c-1.29.19-2.41.49-3.37.9-.96.41-1.71.96-2.24,1.66-.53.7-.8,1.56-.8,2.59,0,1.49.54,2.63,1.63,3.41,1.09.78,2.47,1.17,4.16,1.17Z"/>
  <path d="M328.47,69.66v8.23h-23.8v-8.23h23.8ZM310.07,60.19h10.96v36.85c0,1.01.15,1.8.46,2.35.31.56.74.95,1.3,1.17.56.22,1.21.33,1.94.33.52,0,1.03-.05,1.54-.14s.91-.17,1.18-.22l1.72,8.16c-.55.17-1.32.37-2.32.6-1,.23-2.2.37-3.63.42-2.64.1-4.95-.25-6.93-1.06s-3.52-2.06-4.62-3.76c-1.1-1.7-1.64-3.84-1.62-6.43v-38.29Z"/>
</svg>