<?xml version="1.0" encoding="UTF-8"?>
<svg id="Layer_1" data-name="Layer 1" xmlns="http://www.w3.org/2000/svg" viewBox="0 0 281.96 115.54">
  <defs>
    <style>
      .cls-1 {
        fill: #231f20;
      }
    </style>
  </defs>
  <rect class="cls-1" y="48.31" width="281.96" height="10.08"/>
  <g>
    <path class="cls-1" d="M25.41,73.37c.05-1.65-.45-2.91-1.5-3.78-1.05-.88-2.55-1.31-4.5-1.31-1.37,0-2.58.21-3.63.62-1.05.41-1.89.98-2.53,1.69-.64.71-1.04,1.52-1.19,2.43-.13.76-.07,1.42.2,1.97.26.56.66,1.03,1.2,1.41s1.15.71,1.85.97c.69.26,1.39.48,2.1.66l3.27.85c1.31.32,2.56.75,3.75,1.3,1.18.54,2.21,1.23,3.09,2.06.88.83,1.51,1.83,1.91,3s.46,2.55.19,4.12c-.35,2.13-1.21,4-2.57,5.62-1.36,1.62-3.13,2.88-5.33,3.78-2.2.91-4.75,1.36-7.66,1.36s-5.21-.44-7.15-1.31c-1.94-.88-3.35-2.15-4.23-3.83-.89-1.68-1.18-3.73-.87-6.14h6.48c-.13,1.27.08,2.32.63,3.16.55.84,1.35,1.47,2.39,1.88,1.04.41,2.25.62,3.62.62s2.73-.22,3.89-.65c1.16-.43,2.11-1.04,2.85-1.81s1.19-1.68,1.36-2.73c.17-.95.03-1.73-.42-2.35-.44-.62-1.12-1.14-2.03-1.56s-1.99-.8-3.25-1.13l-3.96-1.07c-2.85-.77-5.02-1.94-6.49-3.51-1.47-1.57-2-3.65-1.59-6.26.37-2.14,1.27-4.02,2.7-5.63,1.43-1.61,3.23-2.86,5.39-3.76,2.16-.89,4.51-1.34,7.06-1.34s4.77.45,6.56,1.35c1.79.9,3.11,2.15,3.95,3.76.84,1.6,1.11,3.46.82,5.57h-6.34Z"/>
    <path class="cls-1" d="M68.96,81.8c-.64,3.85-1.9,7.13-3.77,9.85-1.88,2.72-4.16,4.8-6.84,6.24s-5.59,2.16-8.72,2.16-6.03-.76-8.35-2.28c-2.33-1.52-4-3.7-5.03-6.54-1.03-2.84-1.21-6.25-.55-10.23.64-3.85,1.9-7.14,3.77-9.87,1.88-2.73,4.17-4.82,6.87-6.27s5.63-2.17,8.76-2.17,6,.76,8.32,2.28c2.31,1.52,3.98,3.71,5.01,6.56,1.02,2.85,1.2,6.27.54,10.26ZM62.48,81c.44-2.69.4-4.95-.12-6.8-.52-1.85-1.42-3.24-2.73-4.18-1.3-.94-2.91-1.41-4.83-1.41-2.05,0-3.94.51-5.69,1.54s-3.23,2.52-4.44,4.48-2.05,4.36-2.51,7.17c-.46,2.7-.43,4.97.11,6.8s1.46,3.22,2.77,4.15c1.31.93,2.92,1.39,4.81,1.39,2.05,0,3.94-.51,5.68-1.53,1.74-1.02,3.21-2.5,4.42-4.46,1.21-1.95,2.05-4.34,2.52-7.16Z"/>
    <path class="cls-1" d="M72.01,99.56l6.04-36.36h23.3l-.92,5.52h-16.71l-1.63,9.87h15.11l-.92,5.52h-15.11l-2.56,15.45h-6.59Z"/>
    <path class="cls-1" d="M104.56,68.72l.92-5.52h29.01l-.92,5.52h-11.24l-5.11,30.84h-6.53l5.11-30.84h-11.24Z"/>
    <path class="cls-1" d="M141.43,99.56l-4.23-36.36h7.08l2.13,26.72h.34l11.42-26.72h6.45l2.59,26.74h.32l10.97-26.74h7.08l-16.3,36.36h-6.5l-3.02-25.51h-.28l-11.56,25.51h-6.5Z"/>
    <path class="cls-1" d="M188.54,99.56h-7.03l18.84-36.36h8.13l6.78,36.36h-7.03l-4.88-28.91h-.28l-14.52,28.91ZM191.15,85.3h19.18l-.91,5.29h-19.18l.91-5.29Z"/>
    <path class="cls-1" d="M219.8,99.56l6.04-36.36h13.64c2.79,0,5.06.48,6.8,1.45,1.74.97,2.95,2.32,3.64,4.07s.83,3.79.44,6.12c-.38,2.32-1.2,4.33-2.48,6.05-1.27,1.71-2.95,3.03-5.02,3.97-2.08.94-4.51,1.4-7.31,1.4h-9.71l.94-5.47h8.82c1.63,0,3.01-.23,4.12-.68,1.11-.46,2-1.12,2.65-2.01.65-.88,1.08-1.97,1.28-3.26.21-1.3.14-2.41-.21-3.32-.35-.91-1.01-1.61-1.97-2.09s-2.25-.72-3.89-.72h-6.04l-5.15,30.86h-6.59ZM241.32,83.08l6.27,16.48h-7.35l-6.11-16.48h7.19Z"/>
    <path class="cls-1" d="M252.28,99.56l6.04-36.36h23.65l-.92,5.52h-17.06l-1.63,9.87h15.84l-.92,5.52h-15.84l-1.63,9.92h17.21l-.92,5.52h-23.79Z"/>
  </g>
  <g>
    <path class="cls-1" d="M2.99,43.18L9.02,6.82h13.92c2.63,0,4.75.41,6.37,1.23,1.62.82,2.74,1.94,3.36,3.37.63,1.42.79,3.03.48,4.83-.25,1.48-.75,2.74-1.49,3.78s-1.65,1.89-2.72,2.55c-1.07.66-2.2,1.13-3.41,1.41l-.07.36c1.28.07,2.45.46,3.52,1.18,1.07.72,1.88,1.73,2.42,3.03.54,1.3.67,2.88.37,4.72-.32,1.88-1.06,3.57-2.23,5.07-1.17,1.5-2.74,2.68-4.71,3.54-1.98.86-4.36,1.3-7.14,1.3H2.99ZM10.5,37.68h7.08c2.38,0,4.18-.46,5.4-1.38,1.22-.92,1.95-2.1,2.18-3.54.18-1.08.07-2.05-.32-2.92s-1.03-1.56-1.93-2.06c-.89-.5-2.03-.75-3.4-.75h-7.26l-1.76,10.65ZM13.07,22.28h6.52c1.12,0,2.18-.21,3.17-.63.99-.42,1.81-1.02,2.46-1.79s1.05-1.7,1.21-2.76c.25-1.41-.05-2.57-.89-3.48-.84-.91-2.23-1.37-4.15-1.37h-6.66l-1.65,10.03Z"/>
    <path class="cls-1" d="M34.93,43.18l.71-4.1,23.08-26.74h-18.79l.92-5.52h26.92l-.67,4.1-23.1,26.74h18.77l-.92,5.52h-26.92Z"/>
    <path class="cls-1" d="M92.08,16.99c.05-1.65-.45-2.91-1.5-3.78-1.05-.88-2.55-1.31-4.5-1.31-1.37,0-2.58.21-3.63.62-1.05.41-1.89.98-2.53,1.69-.64.71-1.04,1.52-1.19,2.43-.13.76-.07,1.42.2,1.97.26.56.66,1.03,1.2,1.41s1.15.71,1.85.97c.69.26,1.39.48,2.1.66l3.27.85c1.31.32,2.56.75,3.75,1.3,1.18.54,2.21,1.23,3.09,2.06.88.83,1.51,1.83,1.91,3s.46,2.55.19,4.12c-.35,2.13-1.21,4-2.57,5.62-1.36,1.62-3.13,2.88-5.33,3.78-2.2.91-4.75,1.36-7.66,1.36s-5.21-.44-7.15-1.31c-1.94-.88-3.35-2.15-4.23-3.83-.89-1.68-1.18-3.73-.87-6.14h6.48c-.13,1.27.08,2.32.63,3.16.55.84,1.35,1.47,2.39,1.88,1.04.41,2.25.62,3.62.62s2.73-.22,3.89-.65c1.16-.43,2.11-1.04,2.85-1.81s1.19-1.68,1.36-2.73c.17-.95.03-1.73-.42-2.35-.44-.62-1.12-1.14-2.03-1.56s-1.99-.8-3.25-1.13l-3.96-1.07c-2.85-.77-5.02-1.94-6.49-3.51-1.47-1.57-2-3.65-1.59-6.26.37-2.14,1.27-4.02,2.7-5.63,1.43-1.61,3.23-2.86,5.39-3.76,2.16-.89,4.51-1.34,7.06-1.34s4.77.45,6.56,1.35c1.79.9,3.11,2.15,3.95,3.76.84,1.6,1.11,3.46.82,5.57h-6.34Z"/>
  </g>
</svg>