<?xml version="1.0" encoding="UTF-8"?>
<svg id="Layer_2" data-name="Layer 2" xmlns="http://www.w3.org/2000/svg" viewBox="0 0 87.1 26.43">
  <defs>
    <style>
      .cls-1 {
        stroke: #231f20;
        stroke-miterlimit: 10;
      }
    </style>
  </defs>
  <path class="cls-1" d="M82.66,4.06c2.63,2.37,3.94,5.3,3.94,8.79,0,3.77-1.63,6.82-4.9,9.16-3.27,2.34-7.36,3.51-12.3,3.51-3.19,0-6.75-.79-10.69-2.35-3.94-1.57-8.46-3.82-13.55-6.75-7.25,3.28-13.02,5.69-17.31,7.22-4.3,1.54-8.36,2.3-12.18,2.3-4.86,0-8.6-1.19-11.22-3.56-2.63-2.37-3.94-5.3-3.94-8.79,0-3.77,1.63-6.82,4.9-9.16,3.26-2.34,7.36-3.51,12.3-3.51,3.18,0,6.75.79,10.69,2.36,3.94,1.57,8.46,3.82,13.55,6.75,7.24-3.28,13.02-5.69,17.31-7.22,4.3-1.53,8.36-2.3,12.18-2.3,4.85,0,8.6,1.19,11.23,3.56ZM25.28,16.57c4.1-1.29,8.82-3.12,14.15-5.49C30.11,5.7,22.87,3.01,17.7,3.01c-4.14,0-7.58.89-10.33,2.67s-4.12,3.89-4.12,6.33c0,1.95.91,3.52,2.75,4.71,1.83,1.19,4.42,1.78,7.76,1.78,3.58,0,7.42-.64,11.52-1.94ZM79.73,20.75c2.75-1.78,4.12-3.89,4.12-6.33,0-1.95-.92-3.52-2.75-4.71-1.83-1.19-4.42-1.78-7.76-1.78-3.58,0-7.42.65-11.52,1.94-4.1,1.29-8.82,3.12-14.15,5.5,9.31,5.37,16.56,8.06,21.73,8.06,4.14,0,7.58-.89,10.33-2.67Z"/>
</svg>